<svg xmlns="http://www.w3.org/2000/svg" fill="none" viewBox="0 0 286 120">
  <path d="M142.994 54.59h-7.762V30.948h8.007c2.35 0 4.367.473 6.053 1.42 1.686.939 2.978 2.29 3.875 4.052.905 1.755 1.358 3.86 1.358 6.315 0 2.463-.456 4.58-1.37 6.35-.905 1.77-2.216 3.132-3.933 4.087-1.717.946-3.793 1.42-6.228 1.42zm-4.145-3.116h3.946c1.826 0 3.344-.339 4.554-1.016 1.209-.685 2.115-1.674 2.716-2.967.601-1.301.901-2.887.901-4.757 0-1.855-.3-3.429-.901-4.722-.593-1.293-1.479-2.274-2.658-2.944-1.178-.67-2.642-1.004-4.39-1.004h-4.168v17.41zm19.564 3.116V36.859h3.5V54.59h-3.5zm1.768-20.469c-.609 0-1.132-.2-1.569-.6-.429-.408-.644-.893-.644-1.455 0-.569.215-1.054.644-1.454a2.22 2.22 0 011.569-.612c.609 0 1.128.204 1.557.612.437.4.655.885.655 1.454 0 .562-.218 1.047-.655 1.455a2.2 2.2 0 01-1.557.6zm19.587 7.066l-3.173.554a3.671 3.671 0 00-.632-1.143c-.281-.361-.663-.658-1.147-.889-.484-.23-1.089-.346-1.815-.346-.991 0-1.818.22-2.482.658-.663.431-.995.989-.995 1.674 0 .593.223 1.07.668 1.432.444.361 1.162.658 2.154.889l2.856.646c1.655.377 2.888.958 3.7 1.743.811.785 1.217 1.805 1.217 3.06a4.607 4.607 0 01-.936 2.84c-.617.823-1.479 1.47-2.588 1.94-1.1.469-2.376.704-3.828.704-2.013 0-3.656-.424-4.929-1.27-1.272-.855-2.052-2.067-2.341-3.637l3.383-.508c.211.87.644 1.528 1.3 1.974.655.439 1.51.658 2.564.658 1.147 0 2.064-.234 2.751-.704.687-.477 1.03-1.058 1.03-1.743 0-.554-.211-1.02-.632-1.397-.414-.377-1.05-.662-1.908-.855l-3.044-.658c-1.678-.377-2.919-.977-3.723-1.8-.796-.824-1.194-1.867-1.194-3.13 0-1.046.296-1.962.89-2.747.593-.785 1.412-1.397 2.458-1.836 1.046-.446 2.244-.67 3.594-.67 1.944 0 3.473.416 4.589 1.248 1.116.823 1.854 1.928 2.213 3.313zm11.445 13.762c-1.741 0-3.239-.389-4.496-1.166-1.248-.785-2.208-1.867-2.88-3.245-.671-1.377-1.006-2.955-1.006-4.733 0-1.801.343-3.39 1.03-4.768.687-1.385 1.654-2.467 2.903-3.244 1.249-.777 2.72-1.166 4.414-1.166 1.366 0 2.583.25 3.652.75 1.07.493 1.932 1.185 2.588 2.078.663.893 1.057 1.936 1.182 3.129h-3.407c-.187-.831-.616-1.547-1.287-2.147-.664-.6-1.554-.9-2.67-.9-.975 0-1.83.253-2.564.761-.725.5-1.291 1.216-1.697 2.148-.406.923-.609 2.016-.609 3.278 0 1.293.199 2.41.597 3.348.398.94.96 1.667 1.686 2.182.734.516 1.596.774 2.587.774a4.4 4.4 0 001.803-.358 3.672 3.672 0 001.37-1.05c.375-.455.636-1.001.784-1.64h3.407c-.125 1.147-.503 2.17-1.135 3.07-.633.901-1.479 1.61-2.541 2.125-1.054.516-2.291.774-3.711.774zm18.376 0c-1.686 0-3.158-.381-4.414-1.143-1.257-.762-2.232-1.828-2.927-3.198-.695-1.37-1.042-2.971-1.042-4.803 0-1.84.347-3.448 1.042-4.826.695-1.377 1.67-2.447 2.927-3.21 1.256-.761 2.728-1.142 4.414-1.142 1.685 0 3.157.38 4.413 1.143 1.257.762 2.232 1.832 2.927 3.21.695 1.377 1.042 2.986 1.042 4.825 0 1.832-.347 3.433-1.042 4.803-.695 1.37-1.67 2.436-2.927 3.198-1.256.762-2.728 1.143-4.413 1.143zm.011-2.898c1.093 0 1.998-.285 2.716-.855.718-.569 1.249-1.327 1.592-2.274.352-.947.527-1.99.527-3.128 0-1.132-.175-2.171-.527-3.118-.343-.954-.874-1.72-1.592-2.297-.718-.577-1.623-.866-2.716-.866-1.1 0-2.013.289-2.739.866-.718.577-1.253 1.343-1.604 2.297-.344.947-.515 1.986-.515 3.117 0 1.14.171 2.182.515 3.13.351.946.886 1.704 1.604 2.273.726.57 1.639.855 2.739.855zm23.34-4.814v-10.38h3.512v17.734h-3.442V51.52h-.187c-.414.947-1.078 1.735-1.991 2.366-.905.624-2.033.936-3.383.936-1.155 0-2.178-.25-3.067-.75-.882-.509-1.577-1.26-2.084-2.252-.5-.993-.75-2.22-.75-3.683v-11.28h3.501v10.864c0 1.209.339 2.17 1.018 2.887.68.716 1.561 1.073 2.646 1.073.656 0 1.308-.161 1.955-.484.656-.324 1.198-.813 1.628-1.467.437-.654.651-1.485.644-2.493zm7.886 7.353V36.859h3.383v2.817h.187a4.297 4.297 0 011.733-2.252c.835-.554 1.779-.83 2.833-.83a15.175 15.175 0 011.487.08v3.302a6.392 6.392 0 00-.749-.127 7.257 7.257 0 00-1.077-.081c-.828 0-1.565.173-2.213.52a3.893 3.893 0 00-1.522 1.42c-.375.6-.562 1.285-.562 2.055V54.59h-3.5zm25.797-13.403l-3.172.554a3.712 3.712 0 00-.632-1.143c-.281-.361-.664-.658-1.148-.889-.484-.23-1.088-.346-1.814-.346-.992 0-1.819.22-2.482.658-.664.431-.995.989-.995 1.674 0 .593.222 1.07.667 1.432.445.361 1.163.658 2.154.889l2.857.646c1.654.377 2.887.958 3.699 1.743.812.785 1.218 1.805 1.218 3.06a4.608 4.608 0 01-.937 2.84c-.617.823-1.479 1.47-2.587 1.94-1.101.469-2.377.704-3.828.704-2.014 0-3.657-.424-4.929-1.27-1.272-.855-2.053-2.067-2.342-3.637l3.384-.508c.21.87.644 1.528 1.299 1.974.656.439 1.51.658 2.564.658 1.147 0 2.064-.234 2.751-.704.687-.477 1.031-1.058 1.031-1.743a1.8 1.8 0 00-.633-1.397c-.413-.377-1.049-.662-1.908-.855l-3.044-.658c-1.678-.377-2.919-.977-3.723-1.8-.796-.824-1.194-1.867-1.194-3.13 0-1.046.297-1.962.89-2.747.593-.785 1.413-1.397 2.458-1.836 1.046-.446 2.244-.67 3.595-.67 1.943 0 3.473.416 4.589 1.248 1.116.823 1.853 1.928 2.212 3.313zm11.621 13.762c-1.772 0-3.298-.374-4.578-1.12-1.272-.755-2.255-1.813-2.95-3.175-.687-1.37-1.03-2.975-1.03-4.814 0-1.817.343-3.418 1.03-4.803.695-1.385 1.663-2.467 2.904-3.244 1.248-.777 2.708-1.166 4.378-1.166a8.92 8.92 0 012.95.496c.952.331 1.807.85 2.564 1.559.757.708 1.354 1.628 1.791 2.759.437 1.124.656 2.49.656 4.098v1.224h-14.295v-2.586h10.865c0-.908-.188-1.712-.562-2.413a4.218 4.218 0 00-1.581-1.674c-.671-.408-1.459-.612-2.365-.612-.983 0-1.841.239-2.575.716a4.827 4.827 0 00-1.686 1.847 5.275 5.275 0 00-.585 2.46v2.02c0 1.185.21 2.193.632 3.025.429.83 1.026 1.466 1.791 1.904.765.431 1.659.647 2.681.647.663 0 1.268-.092 1.815-.277a3.93 3.93 0 001.416-.854c.398-.377.703-.843.913-1.397l3.314.588a5.9 5.9 0 01-1.429 2.529c-.679.716-1.533 1.274-2.564 1.674-1.022.392-2.189.589-3.5.589zM151.458 67.176a7.177 7.177 0 00-.913-1.882 5.796 5.796 0 00-3.138-2.344 7.293 7.293 0 00-2.189-.312c-1.35 0-2.568.343-3.653 1.028s-1.943 1.69-2.575 3.013c-.625 1.316-.937 2.929-.937 4.837 0 1.917.316 3.537.948 4.861.633 1.324 1.499 2.328 2.599 3.013 1.101.685 2.354 1.028 3.758 1.028 1.304 0 2.439-.262 3.407-.785a5.51 5.51 0 002.26-2.217c.538-.962.808-2.093.808-3.394l.936.173h-6.86v-2.944h9.424v2.69c0 1.986-.429 3.71-1.288 5.172a8.716 8.716 0 01-3.535 3.371c-1.499.793-3.216 1.19-5.152 1.19-2.169 0-4.074-.493-5.713-1.478-1.631-.986-2.903-2.382-3.816-4.191-.913-1.817-1.37-3.972-1.37-6.465 0-1.886.265-3.58.796-5.08.531-1.501 1.276-2.775 2.236-3.821a9.764 9.764 0 013.407-2.413c1.311-.562 2.743-.843 4.297-.843 1.295 0 2.501.188 3.617.566a9.794 9.794 0 012.997 1.604 9.114 9.114 0 012.189 2.47 8.966 8.966 0 011.171 3.153h-3.711zm7.856 16.174V65.617h3.384v2.817h.187a4.296 4.296 0 011.733-2.251c.835-.554 1.779-.832 2.833-.832a15.175 15.175 0 011.487.081v3.302a6.37 6.37 0 00-.749-.127 7.244 7.244 0 00-1.077-.08c-.828 0-1.565.173-2.213.519a3.895 3.895 0 00-1.522 1.42c-.375.6-.562 1.285-.562 2.055v10.83h-3.501zm17.396.393c-1.14 0-2.17-.208-3.091-.624-.921-.423-1.651-1.035-2.189-1.835-.531-.8-.796-1.782-.796-2.944 0-1.001.195-1.825.585-2.471a4.291 4.291 0 011.58-1.535 8.33 8.33 0 012.225-.855 22.35 22.35 0 012.505-.439l2.622-.3c.672-.084 1.16-.22 1.464-.404.304-.184.456-.485.456-.9v-.081c0-1.008-.288-1.79-.866-2.344-.57-.554-1.42-.831-2.552-.831-1.179 0-2.107.258-2.786.774-.672.508-1.136 1.073-1.394 1.697l-3.289-.74c.39-1.077.96-1.947 1.709-2.608a6.954 6.954 0 012.611-1.455 10.318 10.318 0 013.102-.462c.718 0 1.479.085 2.283.254a6.727 6.727 0 012.271.9c.71.44 1.292 1.067 1.745 1.882.452.809.679 1.86.679 3.152V83.35h-3.419v-2.424h-.14c-.227.446-.566.885-1.019 1.316-.453.43-1.034.789-1.744 1.073-.711.285-1.561.428-2.552.428zm.761-2.771c.967 0 1.795-.189 2.481-.566.695-.377 1.222-.87 1.581-1.478.367-.615.55-1.273.55-1.974v-2.286c-.125.123-.367.239-.726.347-.351.1-.753.188-1.206.265-.452.07-.893.135-1.322.197-.43.053-.789.1-1.077.138a8.77 8.77 0 00-1.862.427c-.554.2-.999.489-1.335.866-.327.37-.491.862-.491 1.478 0 .854.32 1.5.96 1.94.64.43 1.455.646 2.447.646zM189.916 90V65.617h3.419v2.875h.293a9.47 9.47 0 01.878-1.282c.382-.485.913-.908 1.592-1.27.679-.37 1.576-.554 2.692-.554 1.452 0 2.748.362 3.887 1.085 1.14.724 2.033 1.767 2.681 3.13.656 1.361.984 3 .984 4.917 0 1.917-.324 3.56-.972 4.93-.648 1.362-1.538 2.413-2.669 3.152-1.132.73-2.424 1.097-3.875 1.097-1.093 0-1.987-.181-2.681-.543-.687-.362-1.226-.785-1.616-1.27a9.558 9.558 0 01-.901-1.293h-.211V90h-3.501zm3.431-15.516c0 1.246.183 2.34.55 3.278.367.94.897 1.674 1.592 2.205.695.524 1.545.785 2.552.785 1.046 0 1.92-.273 2.623-.82.702-.553 1.233-1.304 1.592-2.25.367-.947.55-2.013.55-3.198 0-1.17-.179-2.22-.538-3.152-.352-.931-.882-1.666-1.593-2.205-.702-.539-1.58-.808-2.634-.808-1.014 0-1.873.257-2.575.773-.695.516-1.222 1.235-1.581 2.159-.359.924-.538 2.001-.538 3.233zm20.087-1.663v10.53h-3.5V59.705h3.453v8.797h.223a5.109 5.109 0 011.932-2.274c.866-.562 1.998-.843 3.395-.843 1.233 0 2.31.25 3.231.75.929.5 1.647 1.247 2.154 2.24.515.986.773 2.217.773 3.695v11.28h-3.501V72.485c0-1.3-.339-2.309-1.018-3.025-.679-.723-1.624-1.085-2.833-1.085-.828 0-1.569.173-2.225.52a3.766 3.766 0 00-1.533 1.524c-.367.662-.551 1.462-.551 2.401zm29.477-2.875l-3.172.555a3.697 3.697 0 00-.633-1.143c-.281-.362-.663-.658-1.147-.89-.484-.23-1.089-.346-1.815-.346-.991 0-1.818.22-2.481.658-.664.431-.996.99-.996 1.674 0 .593.223 1.07.668 1.432.445.362 1.163.658 2.154.889l2.856.646c1.655.378 2.888.959 3.7 1.744.812.785 1.217 1.805 1.217 3.06a4.607 4.607 0 01-.936 2.84c-.617.823-1.479 1.47-2.587 1.939-1.101.47-2.377.704-3.829.704-2.013 0-3.656-.423-4.928-1.27-1.273-.854-2.053-2.067-2.342-3.637l3.384-.508c.21.87.643 1.528 1.299 1.975.656.438 1.51.658 2.564.658 1.147 0 2.064-.235 2.751-.705.687-.477 1.03-1.058 1.03-1.743 0-.554-.21-1.02-.632-1.397-.413-.377-1.05-.662-1.908-.854l-3.044-.658c-1.678-.377-2.919-.978-3.723-1.801-.796-.824-1.194-1.867-1.194-3.129 0-1.047.297-1.962.89-2.748.593-.785 1.412-1.397 2.458-1.835 1.046-.447 2.244-.67 3.594-.67 1.944 0 3.474.416 4.59 1.247 1.116.824 1.853 1.928 2.212 3.313z" fill="#1F1F1F"/>
  <path fill-rule="evenodd" clip-rule="evenodd" d="M72.188 114.551c-7.266 7.265-19.046 7.265-26.312 0L6.408 75.083c-7.265-7.266-7.265-19.047 0-26.312l19.734-19.734a9.303 9.303 0 1113.156 13.156L32.72 48.77c-7.265 7.265-7.265 19.046 0 26.312l19.734 19.734a9.303 9.303 0 0013.156 0 9.303 9.303 0 000-13.156l-6.578-6.578c-7.265-7.266-7.265-19.047 0-26.312 7.266-7.266 7.266-19.047 0-26.312l-6.578-6.578A9.303 9.303 0 0165.61 2.725l46.046 46.046c7.266 7.265 7.266 19.046 0 26.312L72.188 114.55zm19.734-59.202a9.303 9.303 0 10-13.156 13.156 9.303 9.303 0 0013.156-13.156z" fill="#1F1F1F"/>
</svg>
